<?xml version="1.0" encoding="UTF-8" standalone="no"?>
<svg
   xmlns:dc="http://purl.org/dc/elements/1.1/"
   xmlns:cc="http://creativecommons.org/ns#"
   xmlns:rdf="http://www.w3.org/1999/02/22-rdf-syntax-ns#"
   xmlns:svg="http://www.w3.org/2000/svg"
   xmlns="http://www.w3.org/2000/svg"
   width="64"
   height="64"
   viewBox="0 0 16.933333 16.933334"
   version="1.1"
   id="svg8">
  <defs
     id="defs2" />
  <metadata
     id="metadata5">
    <rdf:RDF>
      <cc:Work
         rdf:about="">
        <dc:format>image/svg+xml</dc:format>
        <dc:type
           rdf:resource="http://purl.org/dc/dcmitype/StillImage" />
        <dc:title></dc:title>
      </cc:Work>
    </rdf:RDF>
  </metadata>
  <g
     id="layer1">
    <path
       d="M 0.47464947,0.55737386 H 12.669704 V 9.2801566 H 0.47464947 Z M 1.5135235,1.1095687 6.5955705,6.1354635 11.63083,1.1095687 Z m -0.477321,0.4585998 v 6.7105517 l 3.369316,-3.3505937 z m 11.0719415,0 -3.3693155,3.359958 3.3693155,3.3505937 z M 4.8641175,5.3680045 1.5135235,8.7373199 H 11.63083 l -3.3318805,-3.3693154 -1.703379,1.70338 z"
       stroke="none"
       id="path40"
       style="stroke-width:0.0665543" />
    <g
       id="g120"
       transform="matrix(0.18663037,0,0,0.18663037,5.3795853,5.1431782)"
       style="opacity:1">
      <path
         style="fill:#26b99a"
         d="m 30,60 c -0.553,0 -1,-0.448 -1,-1 V 1 c 0,-0.552 0.447,-1 1,-1 0.553,0 1,0.448 1,1 v 58 c 0,0.552 -0.447,1 -1,1 z"
         id="path100" />
      <path
         style="fill:#26b99a"
         d="m 40,12 c -0.256,0 -0.512,-0.098 -0.707,-0.293 l -10,-10 c -0.391,-0.391 -0.391,-1.023 0,-1.414 0.391,-0.391 1.023,-0.391 1.414,0 l 10,10 c 0.391,0.391 0.391,1.023 0,1.414 C 40.512,11.902 40.256,12 40,12 Z"
         id="path102" />
      <path
         style="fill:#26b99a"
         d="m 20,12 c -0.256,0 -0.512,-0.098 -0.707,-0.293 -0.391,-0.391 -0.391,-1.023 0,-1.414 l 10,-10 c 0.391,-0.391 1.023,-0.391 1.414,0 0.391,0.391 0.391,1.023 0,1.414 l -10,10 C 20.512,11.902 20.256,12 20,12 Z"
         id="path104" />
      <path
         style="fill:#26b99a"
         d="m 30,60 c -0.256,0 -0.512,-0.098 -0.707,-0.293 l -10,-10 c -0.391,-0.391 -0.391,-1.023 0,-1.414 0.391,-0.391 1.023,-0.391 1.414,0 l 10,10 c 0.391,0.391 0.391,1.023 0,1.414 C 30.512,59.902 30.256,60 30,60 Z"
         id="path106" />
      <path
         style="fill:#26b99a"
         d="m 30,60 c -0.256,0 -0.512,-0.098 -0.707,-0.293 -0.391,-0.391 -0.391,-1.023 0,-1.414 l 10,-10 c 0.391,-0.391 1.023,-0.391 1.414,0 0.391,0.391 0.391,1.023 0,1.414 l -10,10 C 30.512,59.902 30.256,60 30,60 Z"
         id="path108" />
      <path
         style="fill:#26b99a"
         d="M 59,31 H 1 C 0.447,31 0,30.552 0,30 0,29.448 0.447,29 1,29 h 58 c 0.553,0 1,0.448 1,1 0,0.552 -0.447,1 -1,1 z"
         id="path110" />
      <path
         style="fill:#26b99a"
         d="m 49,41 c -0.256,0 -0.512,-0.098 -0.707,-0.293 -0.391,-0.391 -0.391,-1.023 0,-1.414 l 10,-10 c 0.391,-0.391 1.023,-0.391 1.414,0 0.391,0.391 0.391,1.023 0,1.414 l -10,10 C 49.512,40.902 49.256,41 49,41 Z"
         id="path112" />
      <path
         style="fill:#26b99a"
         d="m 59,31 c -0.256,0 -0.512,-0.098 -0.707,-0.293 l -10,-10 c -0.391,-0.391 -0.391,-1.023 0,-1.414 0.391,-0.391 1.023,-0.391 1.414,0 l 10,10 c 0.391,0.391 0.391,1.023 0,1.414 C 59.512,30.902 59.256,31 59,31 Z"
         id="path114" />
      <path
         style="fill:#26b99a"
         d="m 1,31 c -0.256,0 -0.512,-0.098 -0.707,-0.293 -0.391,-0.391 -0.391,-1.023 0,-1.414 l 10,-10 c 0.391,-0.391 1.023,-0.391 1.414,0 0.391,0.391 0.391,1.023 0,1.414 l -10,10 C 1.512,30.902 1.256,31 1,31 Z"
         id="path116" />
      <path
         style="fill:#26b99a"
         d="m 11,41 c -0.256,0 -0.512,-0.098 -0.707,-0.293 l -10,-10 c -0.391,-0.391 -0.391,-1.023 0,-1.414 0.391,-0.391 1.023,-0.391 1.414,0 l 10,10 c 0.391,0.391 0.391,1.023 0,1.414 C 11.512,40.902 11.256,41 11,41 Z"
         id="path118" />
    </g>
  </g>
</svg>
